<svg viewBox="0 0 2681 2681" width="2681" height="2681" xmlns="http://www.w3.org/2000/svg" xmlns:xlink="http://www.w3.org/1999/xlink" overflow="hidden"><defs><clipPath id="clip0"><rect x="951" y="-441" width="2681" height="2681"/></clipPath></defs><g clip-path="url(#clip0)" transform="translate(-951 441)"><path d="M997 899.5C997 184.567 1576.57-395 2291.5-395 3006.43-395 3586 184.567 3586 899.5 3586 1614.43 3006.43 2194 2291.5 2194 1576.57 2194 997 1614.43 997 899.5Z" stroke="#FFFFFF" stroke-width="91.6667" stroke-miterlimit="8" fill="#030303" fill-rule="evenodd"/><path d="M1572 596.5C1572 199.131 1894.13-123 2291.5-123 2688.87-123 3011 199.131 3011 596.5 3011 993.869 2688.87 1316 2291.5 1316 1894.13 1316 1572 993.869 1572 596.5Z" fill="#4472C4" fill-rule="evenodd" fill-opacity="0"/><path d="M1869.43 385.693C1894.47 147.37 2103.97-25.0969 2337.35 0.477661 2539.02 22.5779 2697.3 187.13 2715.32 393.44Z" fill="#EE7C23" fill-rule="evenodd"/><path d="M2318.53-32.9233 2459.14 92.9819C2473.51 105.846 2474.72 127.922 2461.86 142.289L2367.46 247.711 2174.82 75.2186 2269.22-30.203C2282.09-44.57 2304.16-45.7879 2318.53-32.9233Z" fill="#EE7C23" fill-rule="evenodd"/><path d="M2278-71.5C2278-80.0604 2286.95-87 2298-87 2309.05-87 2318-80.0604 2318-71.5 2318-62.9396 2309.05-56 2298-56 2286.95-56 2278-62.9396 2278-71.5Z" fill="#FFFFFF" fill-rule="evenodd"/><path d="M1910 443.495C1910 434.385 1917.38 427 1926.49 427L1926.49 427C1935.6 427 1942.99 434.385 1942.99 443.495L1942.99 662.506C1942.99 671.615 1935.6 679 1926.49 679L1926.49 679C1917.38 679 1910 671.615 1910 662.505Z" fill="#FFFFFF" fill-rule="evenodd"/><path d="M2398 447.507C2398 438.39 2405.39 431 2414.51 431L2414.51 431C2423.62 431 2431.01 438.39 2431.01 447.507L2431.01 707.493C2431.01 716.61 2423.62 724 2414.51 724L2414.51 724C2405.39 724 2398 716.61 2398 707.493Z" fill="#FFFFFF" fill-rule="evenodd"/><path d="M2135 447.507C2135 438.39 2142.39 431 2151.51 431L2151.51 431C2160.62 431 2168.01 438.39 2168.01 447.507L2168.01 707.493C2168.01 716.61 2160.62 724 2151.51 724L2151.51 724C2142.39 724 2135 716.61 2135 707.493Z" fill="#FFFFFF" fill-rule="evenodd"/><path d="M2634 447.495C2634 438.385 2641.39 431 2650.5 431L2650.5 431C2659.6 431 2666.99 438.385 2666.99 447.495L2666.99 666.506C2666.99 675.615 2659.6 683 2650.49 683L2650.5 683C2641.39 683 2634 675.615 2634 666.505Z" fill="#FFFFFF" fill-rule="evenodd"/><path d="M1991 803.237C1991 785.433 2005.43 771 2023.24 771L2565.76 771C2583.57 771 2598 785.433 2598 803.237L2598 833.763C2598 851.567 2583.57 866 2565.76 866L2023.24 866C2005.43 866 1991 851.567 1991 833.763Z" fill="#EE7C23" fill-rule="evenodd"/><path d="M2056 932.236C2056 914.433 2070.43 900 2088.24 900L2482.76 900C2500.57 900 2515 914.433 2515 932.236L2515 962.764C2515 980.567 2500.57 995 2482.76 995L2088.24 995C2070.43 995 2056 980.567 2056 962.764Z" fill="#EE7C23" fill-rule="evenodd"/><path d="M1947 1132.5C1947 1074.79 1993.79 1028 2051.5 1028 2109.21 1028 2156 1074.79 2156 1132.5 2156 1190.21 2109.21 1237 2051.5 1237 1993.79 1237 1947 1190.21 1947 1132.5Z" fill="#FFFFFF" fill-rule="evenodd"/><path d="M2174 1132.5C2174 1074.79 2220.56 1028 2278 1028 2335.44 1028 2382 1074.79 2382 1132.5 2382 1190.21 2335.44 1237 2278 1237 2220.56 1237 2174 1190.21 2174 1132.5Z" fill="#FFFFFF" fill-rule="evenodd"/><path d="M2398 1132.5C2398 1074.79 2444.56 1028 2502 1028 2559.44 1028 2606 1074.79 2606 1132.5 2606 1190.21 2559.44 1237 2502 1237 2444.56 1237 2398 1190.21 2398 1132.5Z" fill="#FFFFFF" fill-rule="evenodd"/><path d="M2034.86 1578.5 2034.86 1679.15 2111.33 1679.15C2132.38 1679.15 2147.79 1674.74 2157.58 1665.92 2167.36 1657.1 2172.25 1645.11 2172.25 1629.94L2172.25 1629.2C2172.25 1613.53 2167.77 1601.17 2158.81 1592.1 2149.85 1583.03 2136.08 1578.5 2117.5 1578.5ZM2034.86 1431.6 2034.86 1523.1 2117.5 1523.1C2133.77 1523.1 2146.19 1519.11 2154.74 1511.11 2163.29 1503.11 2167.57 1491.7 2167.57 1476.86 2167.57 1462.02 2163.04 1450.77 2154 1443.1 2144.96 1435.43 2131.64 1431.6 2114.04 1431.6ZM2302.37 1375.71 2370.45 1375.71 2457.28 1615.59 2544.1 1375.71 2612.18 1375.71 2612.18 1735.29 2556.92 1735.29 2556.92 1483.57 2480.95 1690.28 2433.6 1690.28 2357.63 1488.36 2357.63 1735.29 2302.37 1735.29ZM1975.91 1375.71 2005.51 1375.71 2034.86 1375.71 2119.72 1375.71C2154.9 1375.71 2181.59 1384.37 2199.76 1401.68 2217.93 1418.99 2227.01 1442.81 2227.01 1473.15 2227.01 1492.6 2221.34 1509.46 2209.99 1523.72 2198.65 1537.98 2181.71 1547.09 2159.18 1551.05 2182.2 1554.35 2200.04 1563.78 2212.7 1579.36 2225.37 1594.95 2231.7 1614.03 2231.7 1636.62L2231.7 1637.36C2231.7 1667.53 2222.16 1691.39 2203.09 1708.95 2184.01 1726.51 2157.62 1735.29 2123.91 1735.29L2034.86 1735.29 2005.51 1735.29 1975.91 1735.29ZM2822.12 1372C2841.53 1372 2860.85 1375.17 2880.09 1381.52 2899.33 1387.87 2917.58 1397.23 2934.85 1409.59L2906.24 1458.31C2892.59 1448.25 2878.61 1440.71 2864.3 1435.68 2850 1430.65 2835.94 1428.14 2822.12 1428.14 2799.6 1428.14 2782.08 1432.3 2769.59 1440.63 2757.09 1448.95 2750.84 1460.7 2750.84 1475.87L2750.84 1476.12C2750.84 1488.65 2754.5 1498.17 2761.82 1504.68 2769.13 1511.19 2778.71 1516.01 2790.55 1519.15 2802.39 1522.28 2815.05 1525.16 2828.54 1527.8 2842.02 1530.44 2855.46 1533.65 2868.87 1537.45 2882.27 1541.24 2894.52 1546.72 2905.62 1553.89 2916.72 1561.06 2925.56 1570.87 2932.13 1583.32 2938.71 1595.77 2942 1611.97 2942 1631.92L2942 1632.41C2942 1666.21 2930.28 1692.42 2906.85 1711.05 2883.42 1729.68 2850.41 1739 2807.82 1739 2790.55 1739 2773.99 1737.31 2758.12 1733.93 2742.25 1730.55 2727.41 1725.52 2713.6 1718.84 2699.78 1712.17 2687.04 1704.05 2675.36 1694.49L2706.69 1647.25C2720.5 1658.79 2736.04 1667.61 2753.31 1673.71 2770.57 1679.81 2788.74 1682.86 2807.82 1682.86 2831.83 1682.86 2850.45 1678.53 2863.69 1669.88 2876.92 1661.22 2883.54 1649.15 2883.54 1633.65L2883.54 1633.4C2883.54 1621.37 2880.21 1612.13 2873.55 1605.7 2866.89 1599.27 2858.14 1594.53 2847.28 1591.48 2836.43 1588.43 2824.59 1585.84 2811.77 1583.69 2798.12 1581.55 2784.26 1578.87 2770.2 1575.66 2756.14 1572.44 2743.24 1567.41 2731.48 1560.57 2719.72 1553.73 2710.27 1543.92 2703.11 1531.14 2695.96 1518.36 2692.38 1501.34 2692.38 1480.07L2692.38 1479.82C2692.38 1445.53 2703.69 1418.99 2726.3 1400.19 2748.91 1381.4 2780.85 1372 2822.12 1372ZM1787.76 1372C1807.17 1372 1826.49 1375.17 1845.73 1381.52 1864.97 1387.87 1883.22 1397.23 1900.48 1409.59L1871.87 1458.31C1858.22 1448.25 1844.25 1440.71 1829.94 1435.68 1815.63 1430.65 1801.57 1428.14 1787.76 1428.14 1765.23 1428.14 1747.72 1432.3 1735.22 1440.63 1722.73 1448.95 1716.48 1460.7 1716.48 1475.87L1716.48 1476.12C1716.48 1488.65 1720.14 1498.17 1727.45 1504.68 1734.77 1511.19 1744.35 1516.01 1756.19 1519.15 1768.03 1522.28 1780.69 1525.16 1794.17 1527.8 1807.66 1530.44 1821.1 1533.65 1834.5 1537.45 1847.9 1541.24 1860.16 1546.72 1871.25 1553.89 1882.35 1561.06 1891.19 1570.87 1897.77 1583.32 1904.35 1595.77 1907.64 1611.97 1907.64 1631.92L1907.64 1632.41C1907.64 1666.21 1895.92 1692.42 1872.49 1711.05 1849.06 1729.68 1816.04 1739 1773.46 1739 1756.19 1739 1739.62 1737.31 1723.75 1733.93 1707.89 1730.55 1693.04 1725.52 1679.23 1718.84 1665.42 1712.17 1652.68 1704.05 1641 1694.49L1672.33 1647.25C1686.14 1658.79 1701.68 1667.61 1718.94 1673.71 1736.21 1679.81 1754.38 1682.86 1773.46 1682.86 1797.46 1682.86 1816.09 1678.53 1829.32 1669.88 1842.56 1661.22 1849.18 1649.15 1849.18 1633.65L1849.18 1633.4C1849.18 1621.37 1845.85 1612.13 1839.19 1605.7 1832.53 1599.27 1823.77 1594.53 1812.92 1591.48 1802.07 1588.43 1790.23 1585.84 1777.4 1583.69 1763.75 1581.55 1749.9 1578.87 1735.84 1575.66 1721.78 1572.44 1708.87 1567.41 1697.11 1560.57 1685.36 1553.73 1675.9 1543.92 1668.75 1531.14 1661.6 1518.36 1658.02 1501.34 1658.02 1480.07L1658.02 1479.82C1658.02 1445.53 1669.32 1418.99 1691.93 1400.19 1714.55 1381.4 1746.49 1372 1787.76 1372Z" fill="#ED7D31" fill-rule="evenodd"/><rect x="2034" y="1341" width="31" height="407" fill="#030303"/><rect x="0" y="0" width="31.0003" height="118" fill="#030303" transform="matrix(1 0 0 -1 1766 1459)"/><rect x="0" y="0" width="31.0003" height="119" fill="#030303" transform="matrix(1 0 0 -1 1766 1766)"/><rect x="2358" y="1341" width="31" height="407" fill="#030303"/><rect x="0" y="0" width="30.9999" height="118" fill="#030303" transform="matrix(1 0 0 -1 2802 1459)"/><rect x="0" y="0" width="30.9999" height="119" fill="#030303" transform="matrix(1 0 0 -1 2802 1766)"/></g></svg>